# xmcd CD database file
#
# Track frame offsets:
#	150
#	19895
#	30396
#	49230
#	68905
#	78808
#	90183
#	107083
#	115388
#	137226
#	152387
#	171226
#	182384
#	203449
#	219523
#	227198
#	249931
#	258285
#	274280
#	291766
#
# Disc length: 4149 seconds
#
# Revision: 0
# Processed by: cddbd v1.5.2PL0 Copyright (c) Steve Scherf et al.
# Submitted via: CDex 1.51
#
DISCID=08103314
DTITLE=Helenice da Cruz Machado Bella - Na Luz dos Sons 2
DYEAR=1900
DGENRE=New Age
TTITLE0=Meditando
TTITLE1=Recordações Felizes
TTITLE2=Acalanto - canção de ninar
TTITLE3=Esperança
TTITLE4=Ternura
TTITLE5=Ensaio
TTITLE6=Simplicidade
TTITLE7=Valsa n. 4
TTITLE8=Canção do Exílio
TTITLE9=Primavera
TTITLE10=Tranquilidade
TTITLE11=Valsa n. 3
TTITLE12=Sonho de Paz
TTITLE13=Pensamento de Amor
TTITLE14=Regozijo
TTITLE15=Doces Lembranças
TTITLE16=Interrogações
TTITLE17=Lamento da Terra
TTITLE18=O Sonho de um Homem
TTITLE19=Vibrações para Leopoldina
EXTD=
EXTT0=
EXTT1=
EXTT2=
EXTT3=
EXTT4=
EXTT5=
EXTT6=
EXTT7=
EXTT8=
EXTT9=
EXTT10=
EXTT11=
EXTT12=
EXTT13=
EXTT14=
EXTT15=
EXTT16=
EXTT17=
EXTT18=
EXTT19=
PLAYORDER=
